<svg id="Capa_1" data-name="Capa 1" xmlns="http://www.w3.org/2000/svg" viewBox="0 0 24.89 24.89"><defs><style>.cls-1{fill:#f4f4f4;}.cls-2{fill:none;stroke:#f4f4f4;stroke-miterlimit:10;}</style></defs><path class="cls-1" d="M6.57,7.86a.5.5,0,0,1,.5-.5h1.5a.5.5,0,0,1,.49.38l.4,1.62H21.07a.5.5,0,0,1,.5.5.49.49,0,0,1,0,.12l-1.5,6a.51.51,0,0,1-.49.38h-9a.49.49,0,0,1-.48-.38L8.18,8.36H7.07A.51.51,0,0,1,6.57,7.86Zm3.14,2.5.5,2h1.36v-2Zm2.86,0v2h2v-2Zm3,0v2h2v-2Zm3,0v2h1.36l.5-2Zm1.11,3H18.57v2h.61Zm-2.11,0h-2v2h2Zm-3,0h-2v2h2Zm-3,0H10.46l.5,2h.61Zm0,5a1,1,0,1,0,1,1A1,1,0,0,0,11.57,18.36Zm-2,1a2,2,0,1,1,2,2A2,2,0,0,1,9.57,19.36Zm9-1a1,1,0,1,0,1,1A1,1,0,0,0,18.57,18.36Zm-2,1a2,2,0,1,1,2,2A2,2,0,0,1,16.57,19.36Z" transform="translate(-2.36 -1.07)"/><circle class="cls-2" cx="12.45" cy="12.45" r="11.95"/></svg>